<svg xmlns="http://www.w3.org/2000/svg" viewBox="0 0 305.8 305.8"><defs><style>.cls-1{fill:#dff2ff;}.cls-2{fill:#333;}.cls-3{fill:#b3b3b3;}.cls-4{fill:#f2f2f2;}</style></defs><g id="Layer_15" data-name="Layer 15"><rect class="cls-1" width="305.8" height="305.8"/></g><g id="Layer_12" data-name="Layer 12"><path d="M573.2,253a48.09,48.09,0,0,0-13.72-5.3,40.48,40.48,0,0,0-14.59-.57,29.79,29.79,0,0,0-13.4,5.39c-.49.35-.92.78-1.38,1.17A10.31,10.31,0,0,0,528.8,255l-1.22,1.34c-.36.48-.74.95-1.07,1.46a24.48,24.48,0,0,0-3.12,6.52,28.86,28.86,0,0,0-.79,14.38,27.8,27.8,0,0,0,6.47,12.87A32.67,32.67,0,0,0,540.91,300a33.15,33.15,0,0,0,14.42,2.43,32.36,32.36,0,0,1-14.6-2,30.52,30.52,0,0,1-6.58-3.49,33.69,33.69,0,0,1-5.65-4.88,28,28,0,0,1-6.8-13.2,29.88,29.88,0,0,1,.74-14.87,25.48,25.48,0,0,1,3.28-6.76c.35-.53.75-1,1.13-1.52l1.28-1.39A11.13,11.13,0,0,1,529.5,253c.48-.4.94-.84,1.45-1.21a29.47,29.47,0,0,1,13.83-5.41,41,41,0,0,1,14.81.84A46.55,46.55,0,0,1,573.2,253Z" transform="translate(-351.55 -125.03)"/></g><g id="Layer_10" data-name="Layer 10"><path class="cls-2" d="M500.94,347.8c3.35,1.08,5.95,2,7.5,2.5a20.38,20.38,0,0,1,3.85,1.71h0c.4.24,11,6.42,13.64,17.79,1.6,6.86-1.18,10-1,24,.15,11.07,1.79,13.79,0,15-4.76,3.22-24.41-10.64-33-30-2.62-5.92-2.28-8-6-15-7.23-13.61-13.91-19-17-21a39.51,39.51,0,0,0-5.5-3l33.5-1,3-1c1.25-.41,2.41-.84,3.61-1.36.7-.3,1.09-.5,1.39-.64a50.1,50.1,0,0,1,5.5-1.5" transform="translate(-351.55 -125.03)"/></g><g id="Layer_8" data-name="Layer 8"><path class="cls-2" d="M500.94,336.8c7.8-1.42,8.94-5.05,24-13,5.92-3.12,16.7-8.8,18-7,.72,1-2.28,3.3-6,10-3.18,5.74-2.94,7.56-5,11a25.64,25.64,0,0,1-14,11,25,25,0,0,1-14,0,26,26,0,0,1-3-1" transform="translate(-351.55 -125.03)"/></g><g id="Layer_5" data-name="Layer 5"><path class="cls-2" d="M590.94,262.8a92.92,92.92,0,0,1-.67,11.32,86.73,86.73,0,0,1-2,10.42c-1.08,3-4.56,11.42-13.37,16.26a30.92,30.92,0,0,1-14.5,3.5,47.66,47.66,0,0,1-21-4.36c-18.78-7.86-21.38-12.16-35.47-18.14-22.63-9.6-32.41-8.86-39-7a31.37,31.37,0,0,0-14,8c-8.45,8.76-8.48,20.53-8.15,25.32.06.83.13,1.44.15,1.68.6,5.19,3.08,14.88,14.82,26.42-7.83-5.34-27.45-20.31-35.92-47.19a96.61,96.61,0,0,1-3.9-25.73,86.56,86.56,0,0,1,59.16-82.09c7-3.65,9.18-7.48,9.84-10.41,1.94-8.52-7.5-16.48-4-22,1.25-2,3.49-2.6,5-3,12.76-3.4,30.74,10.77,36,15a304.82,304.82,0,0,1,43.87,43.64A87.43,87.43,0,0,1,587,237.35,92.68,92.68,0,0,1,590.94,262.8Z" transform="translate(-351.55 -125.03)"/></g><g id="Layer_11" data-name="Layer 11"><path class="cls-3" d="M516.86,288.36a52.42,52.42,0,0,0-11.42-5.06,42.94,42.94,0,0,0-11-2,33,33,0,0,0-10,1,27,27,0,0,0-9,4,25.6,25.6,0,0,0-9,12c-3.72,10.08.11,19.05,1,21a29.42,29.42,0,0,0,14,14,31.19,31.19,0,0,0,18,3,31.71,31.71,0,0,0,12.69-4.83c.06-.05.64-.47,1.46-1l1.1-.68a77.85,77.85,0,0,1-8.25,6.52,49.71,49.71,0,0,1-13,7,34.06,34.06,0,0,1-10,2c-8.57.35-15.06-2.94-19-5a40.38,40.38,0,0,1-13-10,39.42,39.42,0,0,1-9-23c-.2-4-.47-11.35,4-19a31.1,31.1,0,0,1,13-12,33.46,33.46,0,0,1,16-3,53.49,53.49,0,0,1,12,2c1.46.36,4.35,1.11,7.92,2.36a92.2,92.2,0,0,1,10.34,4.41A112.89,112.89,0,0,1,516.86,288.36Z" transform="translate(-351.55 -125.03)"/></g><g id="Layer_13" data-name="Layer 13"><ellipse class="cls-4" cx="533.36" cy="269.09" rx="4.5" ry="7.5" transform="translate(-312.1 480.11) rotate(-61)"/></g></svg>